<svg xmlns="http://www.w3.org/2000/svg" width="24" height="24" fill="none">
    <path stroke="#404553" d="M18.191 14.218c-.653-.644-1.468-.644-2.116 0-.495.49-.99.982-1.476 1.48-.133.138-.246.167-.408.075-.32-.174-.66-.316-.969-.507-1.434-.902-2.636-2.062-3.7-3.368-.528-.649-.998-1.343-1.327-2.125-.066-.158-.054-.262.075-.39.495-.479.977-.97 1.464-1.46.678-.682.678-1.48-.004-2.166-.387-.391-.774-.774-1.16-1.164-.4-.4-.795-.803-1.198-1.198-.653-.636-1.468-.636-2.116.004-.5.49-.977.994-1.485 1.476-.47.445-.707.99-.757 1.626-.079 1.035.175 2.013.533 2.965.732 1.97 1.846 3.721 3.197 5.326a19.787 19.787 0 0 0 6.553 5.127c1.148.557 2.337.985 3.63 1.056.89.05 1.663-.175 2.283-.869.424-.474.902-.906 1.351-1.36.666-.673.67-1.488.009-2.153-.79-.795-1.585-1.585-2.379-2.375Z"/>
</svg>
